<?xml version="1.0" encoding="utf-8"?>
<!-- Generator: Adobe Illustrator 16.0.0, SVG Export Plug-In . SVG Version: 6.00 Build 0)  -->
<!DOCTYPE svg PUBLIC "-//W3C//DTD SVG 1.1//EN" "http://www.w3.org/Graphics/SVG/1.1/DTD/svg11.dtd">
<svg version="1.1" id="Layer_1" xmlns="http://www.w3.org/2000/svg" xmlns:xlink="http://www.w3.org/1999/xlink" x="0px" y="0px"
	 width="196px" height="196px" viewBox="0 0 196 196" enable-background="new 0 0 196 196" xml:space="preserve">
<g>
	<g>
		<g>
			<g>
				<g>
					<path d="M97.059,116.659c-11.29,0-21.638-3.293-29.635-9.251c-3.92,1.881-8.467,2.822-12.857,2.352
						c-13.015-1.254-22.579-13.014-21.325-26.028c0.784-7.37,4.704-13.799,10.976-17.719c0-0.313,0-0.47,0-0.784
						c0-19.287,17.405-34.967,38.729-34.967c7.526,0,14.739,1.882,21.012,5.488c4.076-2.509,8.623-3.763,13.484-3.763
						c11.76,0,22.108,7.997,25.088,19.286c13.484,2.352,23.52,14.269,23.52,28.224c0,15.837-12.857,28.694-28.693,28.694
						c-3.137,0-6.272-0.47-9.252-1.567C119.952,112.896,108.819,116.659,97.059,116.659z M67.895,101.136l1.411,1.098
						c7.056,5.802,17.248,9.095,27.753,9.095c11.132,0,21.482-3.606,28.695-9.879l1.254-1.098l1.412,0.627
						c2.822,1.098,5.801,1.726,8.78,1.726c12.857,0,23.521-10.506,23.521-23.52c0-11.917-8.938-21.952-20.855-23.207l-1.881-0.157
						l-0.314-1.882c-1.881-9.721-10.505-16.777-20.383-16.777c-4.234,0-8.468,1.254-11.918,3.763l-1.41,0.941l-1.412-0.941
						c-5.801-3.606-12.543-5.645-19.6-5.645c-18.502,0-33.555,13.328-33.555,29.792c0,0.627,0,1.412,0.157,2.039l0.157,1.725
						l-1.568,0.784c-5.488,2.979-9.095,8.467-9.722,14.583c-0.941,10.192,6.429,19.287,16.621,20.384
						c4.077,0.471,7.997-0.471,11.29-2.51L67.895,101.136z"/>
				</g>
			</g>
		</g>
	</g>
</g>
</svg>
